<svg width="32" height="32" viewBox="0 0 32 32" fill="none" xmlns="http://www.w3.org/2000/svg">
<path d="M9.402 0H5.444C4.04419 0 2.70171 0.556073 1.71189 1.54589C0.722074 2.53571 0.166 3.87819 0.166 5.278L0.166 9.236C0.166 10.6358 0.722074 11.9783 1.71189 12.9681C2.70171 13.9579 4.04419 14.514 5.444 14.514H9.402C10.8018 14.514 12.1443 13.9579 13.1341 12.9681C14.1239 11.9783 14.68 10.6358 14.68 9.236V5.278C14.68 3.87819 14.1239 2.53571 13.1341 1.54589C12.1443 0.556073 10.8018 0 9.402 0V0ZM12.041 9.236C12.041 9.93591 11.763 10.6071 11.2681 11.1021C10.7731 11.597 10.1019 11.875 9.402 11.875H5.444C4.74409 11.875 4.07285 11.597 3.57795 11.1021C3.08304 10.6071 2.805 9.93591 2.805 9.236V5.278C2.805 4.57809 3.08304 3.90685 3.57795 3.41195C4.07285 2.91704 4.74409 2.639 5.444 2.639H9.402C10.1019 2.639 10.7731 2.91704 11.2681 3.41195C11.763 3.90685 12.041 4.57809 12.041 5.278V9.236Z" fill="#313131"/>
<path d="M9.402 17.153H5.444C4.04419 17.153 2.70171 17.709 1.71189 18.6988C0.722074 19.6887 0.166 21.0311 0.166 22.431L0.166 26.389C0.166 27.7888 0.722074 29.1312 1.71189 30.1211C2.70171 31.1109 4.04419 31.667 5.444 31.667H9.402C10.8018 31.667 12.1443 31.1109 13.1341 30.1211C14.1239 29.1312 14.68 27.7888 14.68 26.389V22.431C14.68 21.0311 14.1239 19.6887 13.1341 18.6988C12.1443 17.709 10.8018 17.153 9.402 17.153V17.153ZM12.041 26.389C12.041 27.0889 11.763 27.7601 11.2681 28.255C10.7731 28.7499 10.1019 29.028 9.402 29.028H5.444C4.74409 29.028 4.07285 28.7499 3.57795 28.255C3.08304 27.7601 2.805 27.0889 2.805 26.389V22.431C2.805 21.731 3.08304 21.0598 3.57795 20.5649C4.07285 20.07 4.74409 19.792 5.444 19.792H9.402C10.1019 19.792 10.7731 20.07 11.2681 20.5649C11.763 21.0598 12.041 21.731 12.041 22.431V26.389Z" fill="#313131"/>
<path d="M26.555 17.153H22.597C21.1972 17.153 19.8547 17.709 18.8649 18.6988C17.8751 19.6887 17.319 21.0311 17.319 22.431V26.389C17.319 27.7888 17.8751 29.1312 18.8649 30.1211C19.8547 31.1109 21.1972 31.667 22.597 31.667H26.555C27.9548 31.667 29.2973 31.1109 30.2871 30.1211C31.2769 29.1312 31.833 27.7888 31.833 26.389V22.431C31.833 21.0311 31.2769 19.6887 30.2871 18.6988C29.2973 17.709 27.9548 17.153 26.555 17.153V17.153ZM29.194 26.389C29.194 27.0889 28.916 27.7601 28.4211 28.255C27.9261 28.7499 27.2549 29.028 26.555 29.028H22.597C21.8971 29.028 21.2259 28.7499 20.7309 28.255C20.236 27.7601 19.958 27.0889 19.958 26.389V22.431C19.958 21.731 20.236 21.0598 20.7309 20.5649C21.2259 20.07 21.8971 19.792 22.597 19.792H26.555C27.2549 19.792 27.9261 20.07 28.4211 20.5649C28.916 21.0598 29.194 21.731 29.194 22.431V26.389Z" fill="#313131"/>
<path d="M18.638 9.23605H29.194C29.544 9.23605 29.8796 9.09703 30.127 8.84957C30.3745 8.60212 30.5135 8.2665 30.5135 7.91655C30.5135 7.56659 30.3745 7.23097 30.127 6.98352C29.8796 6.73606 29.544 6.59705 29.194 6.59705H18.638C18.288 6.59705 17.9524 6.73606 17.705 6.98352C17.4575 7.23097 17.3185 7.56659 17.3185 7.91655C17.3185 8.2665 17.4575 8.60212 17.705 8.84957C17.9524 9.09703 18.288 9.23605 18.638 9.23605V9.23605Z" fill="#313131"/>
</svg>
