<svg width="32" height="32" viewBox="0 0 32 32" fill="none" xmlns="http://www.w3.org/2000/svg">
<path d="M30.525 11.945L20.511 1.92997C19.2716 0.694193 17.5927 0.000244141 15.8425 0.000244141C14.0923 0.000244141 12.4134 0.694193 11.174 1.92997L1.161 11.945C0.791726 12.3118 0.498949 12.7482 0.299652 13.2291C0.100354 13.7099 -0.00149837 14.2255 1.05875e-06 14.746V27.707C1.05875e-06 28.7575 0.41732 29.765 1.16015 30.5078C1.90298 31.2507 2.91048 31.668 3.961 31.668H27.725C28.7755 31.668 29.783 31.2507 30.5259 30.5078C31.2687 29.765 31.686 28.7575 31.686 27.707V14.746C31.6875 14.2255 31.5856 13.7099 31.3864 13.2291C31.1871 12.7482 30.8943 12.3118 30.525 11.945V11.945ZM19.8 29.027H11.882V23.833C11.8985 22.7935 12.323 21.8022 13.064 21.0729C13.8049 20.3436 14.8029 19.9349 15.8425 19.9349C16.8821 19.9349 17.8801 20.3436 18.621 21.0729C19.362 21.8022 19.7865 22.7935 19.803 23.833L19.8 29.027ZM29.042 27.707C29.042 28.0571 28.9029 28.3928 28.6554 28.6404C28.4078 28.8879 28.0721 29.027 27.722 29.027H22.444V23.833C22.444 22.0825 21.7486 20.4038 20.5109 19.1661C19.2732 17.9283 17.5944 17.233 15.844 17.233C14.0936 17.233 12.4148 17.9283 11.1771 19.1661C9.93936 20.4038 9.244 22.0825 9.244 23.833V29.027H3.961C3.61092 29.027 3.27517 28.8879 3.02762 28.6404C2.78007 28.3928 2.641 28.0571 2.641 27.707V14.746C2.6424 14.3962 2.78142 14.061 3.028 13.813L13.041 3.80097C13.7851 3.0611 14.7917 2.64579 15.841 2.64579C16.8903 2.64579 17.8969 3.0611 18.641 3.80097L28.659 13.816C28.9046 14.0631 29.0436 14.3966 29.046 14.745L29.042 27.707Z" fill="#999999"/>
</svg>
