<svg xmlns="http://www.w3.org/2000/svg" width="409.272" height="367.319" viewBox="0 0 409.272 367.319">
  <g id="verify_docs" data-name="verify docs" transform="translate(-0.006 -0.006)">
    <path id="Path_68" data-name="Path 68" d="M418.583,99.863,405.266,103.3,241.2,145.608l-13.317,3.434a25.214,25.214,0,0,0-18.1,30.677l57.746,223.925a25.214,25.214,0,0,0,30.677,18.1l.034-.009,190.634-49.161.034-.009a25.214,25.214,0,0,0,18.1-30.677L449.26,117.962A25.214,25.214,0,0,0,418.583,99.863Z" transform="translate(-208.978 -99.06)" fill="#f2f2f2"/>
    <path id="Path_69" data-name="Path 69" d="M427,113.488l-15.773,4.068L252.068,158.6l-15.773,4.068a17.956,17.956,0,0,0-12.889,21.846l57.746,223.925A17.956,17.956,0,0,0,303,421.326l.034-.009,190.634-49.161.035-.009A17.955,17.955,0,0,0,506.589,350.3L448.844,126.376A17.956,17.956,0,0,0,427,113.488Z" transform="translate(-215.582 -105.664)" fill="#fff"/>
    <path id="Path_70" data-name="Path 70" d="M497.579,245.043l-96.437,24.87a4.194,4.194,0,0,1-2.095-8.122l96.437-24.869a4.194,4.194,0,1,1,2.095,8.122Z" transform="translate(-298.073 -164.706)" fill="#f2f2f2"/>
    <path id="Path_71" data-name="Path 71" d="M521.086,262.979,407.9,292.168a4.194,4.194,0,0,1-2.095-8.122l113.19-29.189a4.194,4.194,0,0,1,2.095,8.122Z" transform="translate(-301.293 -173.255)" fill="#f2f2f2"/>
    <path id="Path_72" data-name="Path 72" d="M527.848,362.417,431.41,387.286a4.194,4.194,0,1,1-2.095-8.122l96.437-24.869a4.194,4.194,0,1,1,2.095,8.122Z" transform="translate(-312.501 -220.654)" fill="#f2f2f2"/>
    <path id="Path_73" data-name="Path 73" d="M551.354,380.353l-113.19,29.189a4.194,4.194,0,0,1-2.095-8.123L549.26,372.23a4.194,4.194,0,1,1,2.095,8.122Z" transform="translate(-315.72 -229.203)" fill="#f2f2f2"/>
    <path id="Path_74" data-name="Path 74" d="M558.116,479.79l-96.437,24.869a4.194,4.194,0,0,1-2.095-8.123l96.437-24.869a4.194,4.194,0,1,1,2.095,8.122Z" transform="translate(-326.929 -276.601)" fill="#f2f2f2"/>
    <path id="Path_75" data-name="Path 75" d="M581.623,497.726l-113.19,29.189a4.194,4.194,0,1,1-2.095-8.122L579.529,489.6a4.194,4.194,0,1,1,2.095,8.122Z" transform="translate(-330.148 -285.15)" fill="#f2f2f2"/>
    <path id="Path_76" data-name="Path 76" d="M333.95,317.534l-34.128,8.8a2.013,2.013,0,0,1-2.45-1.445l-7.834-30.379a2.013,2.013,0,0,1,1.445-2.45l34.128-8.8a2.013,2.013,0,0,1,2.45,1.445l7.834,30.379a2.013,2.013,0,0,1-1.445,2.45Z" transform="translate(-247.344 -186.828)" fill="#e6e6e6"/>
    <path id="Path_77" data-name="Path 77" d="M364.218,434.907l-34.128,8.8a2.013,2.013,0,0,1-2.45-1.445l-7.834-30.379a2.013,2.013,0,0,1,1.445-2.449l34.128-8.8a2.013,2.013,0,0,1,2.45,1.445l7.834,30.379a2.013,2.013,0,0,1-1.445,2.449Z" transform="translate(-261.772 -242.775)" fill="#e6e6e6"/>
    <path id="Path_78" data-name="Path 78" d="M394.486,552.281l-34.128,8.8a2.013,2.013,0,0,1-2.45-1.445l-7.834-30.379a2.013,2.013,0,0,1,1.445-2.45l34.128-8.8a2.013,2.013,0,0,1,2.45,1.445l7.834,30.379A2.013,2.013,0,0,1,394.486,552.281Z" transform="translate(-276.2 -298.723)" fill="#e6e6e6"/>
    <path id="Path_79" data-name="Path 79" d="M661.321,209.052H464.379a25.214,25.214,0,0,0-25.186,25.186V465.489a25.214,25.214,0,0,0,25.186,25.186H661.321a25.214,25.214,0,0,0,25.186-25.186V234.238a25.214,25.214,0,0,0-25.186-25.186Z" transform="translate(-318.71 -151.486)" fill="#e6e6e6"/>
    <path id="Path_80" data-name="Path 80" d="M667.925,222.906H470.982a17.955,17.955,0,0,0-17.935,17.935V472.093a17.955,17.955,0,0,0,17.935,17.935H667.925a17.955,17.955,0,0,0,17.935-17.935V240.841a17.955,17.955,0,0,0-17.935-17.935Z" transform="translate(-325.313 -158.09)" fill="#fff"/>
    <circle id="Ellipse_94" data-name="Ellipse 94" cx="45.976" cy="45.976" r="45.976" transform="translate(317.326 275.373)"/>
    <path id="Path_81" data-name="Path 81" d="M899.671,681.6H883.68V665.612a6,6,0,0,0-11.994,0V681.6H855.694a6,6,0,1,0,0,11.994h15.992v15.992a6,6,0,1,0,11.994,0V693.6h15.992a6,6,0,0,0,0-11.994Z" transform="translate(-514.381 -366.252)" fill="#fff"/>
    <path id="Path_82" data-name="Path 82" d="M712.472,458.076H612.879a4.194,4.194,0,0,1,0-8.388h99.593a4.194,4.194,0,0,1,0,8.388Z" transform="translate(-399.5 -266.188)" fill="#e6e6e6"/>
    <path id="Path_83" data-name="Path 83" d="M729.772,485.123H612.879a4.194,4.194,0,0,1,0-8.388H729.772a4.194,4.194,0,0,1,0,8.388Z" transform="translate(-399.5 -279.08)" fill="#e6e6e6"/>
    <path id="Path_84" data-name="Path 84" d="M712.472,579.289H612.879a4.194,4.194,0,1,1,0-8.388h99.593a4.194,4.194,0,0,1,0,8.388Z" transform="translate(-399.5 -323.965)" fill="#e6e6e6"/>
    <path id="Path_85" data-name="Path 85" d="M729.772,606.337H612.879a4.194,4.194,0,0,1,0-8.388H729.772a4.194,4.194,0,0,1,0,8.388Z" transform="translate(-399.5 -336.858)" fill="#e6e6e6"/>
    <path id="Path_86" data-name="Path 86" d="M540.137,472.8H504.892a2.013,2.013,0,0,1-2.011-2.011V439.42a2.013,2.013,0,0,1,2.011-2.011h35.245a2.013,2.013,0,0,1,2.011,2.011v31.373a2.013,2.013,0,0,1-2.011,2.011Z" transform="translate(-349.067 -260.335)" fill="#e6e6e6"/>
    <path id="Path_87" data-name="Path 87" d="M540.137,594.017H504.892a2.013,2.013,0,0,1-2.011-2.011V560.633a2.013,2.013,0,0,1,2.011-2.011h35.245a2.013,2.013,0,0,1,2.011,2.011v31.373a2.013,2.013,0,0,1-2.011,2.011Z" transform="translate(-349.067 -318.112)" fill="#e6e6e6"/>
    <path id="Path_88" data-name="Path 88" d="M736.516,323.141H663.09a4.194,4.194,0,0,1,0-8.388h73.426a4.194,4.194,0,0,1,0,8.388Z" transform="translate(-423.433 -201.869)" fill="#ccc"/>
    <path id="Path_89" data-name="Path 89" d="M753.816,350.189H663.09a4.194,4.194,0,1,1,0-8.388h90.726a4.194,4.194,0,0,1,0,8.388Z" transform="translate(-423.433 -214.762)" fill="#ccc"/>
    <path id="Path_90" data-name="Path 90" d="M572.373,338.826H504.681a2.013,2.013,0,0,1-2.011-2.011v-52.83a2.013,2.013,0,0,1,2.011-2.011h67.692a2.013,2.013,0,0,1,2.011,2.011v52.83A2.013,2.013,0,0,1,572.373,338.826Z" transform="translate(-348.967 -186.245)"/>
  </g>
</svg>
